HIERARCHY
ROOT Hips
{
	OFFSET 0.00 0.00 0.00
	CHANNELS 6 Xposition Yposition Zposition Xrotation Zrotation Yrotation
	JOINT Spine
	{
		OFFSET	0.0000	9.2263	1.5771
		CHANNELS 3 Xrotation Yrotation Zrotation
		JOINT Spine1
		{
			OFFSET	0.0000	16.2540	-0.1656
			CHANNELS 3 Xrotation Yrotation Zrotation
			JOINT Spine2
			{
				OFFSET	0.0000	13.6396	-1.2923
				CHANNELS 3 Xrotation Yrotation Zrotation
				JOINT Neck
				{
					OFFSET	0.0000	13.8774	-4.3542
					CHANNELS 3 Xrotation Yrotation Zrotation
					JOINT Neck1
					{
						OFFSET	0.0000	4.3400	0.9269
						CHANNELS 3 Xrotation Yrotation Zrotation
						JOINT Head
						{
							OFFSET	0.0000	4.0266	0.8585
							CHANNELS 3 Xrotation Yrotation Zrotation
							JOINT HeadTop_End
							{
								OFFSET	0.0000	21.0545	4.8205
								CHANNELS 3 Zrotation Yrotation Xrotation
								End Site
								{
									OFFSET 0.0000 0.0000 0.0000
								}
							}
							JOINT L_Ear
							{
								OFFSET	6.8586	8.8620	3.3161
								CHANNELS 3 Zrotation Yrotation Xrotation
								End Site
								{
									OFFSET 0.0000 0.0000 0.0000
								}
							}
							JOINT Jaw
							{
								OFFSET	0.0038	6.2350	4.4131
								CHANNELS 3 Zrotation Yrotation Xrotation
								JOINT TongueBack
								{
									OFFSET	0.0000	-3.4114	4.6032
									CHANNELS 3 Zrotation Yrotation Xrotation
									JOINT TongueMid
									{
										OFFSET	0.0000	0.0209	1.6663
										CHANNELS 3 Zrotation Yrotation Xrotation
										End Site
										{
											OFFSET 0.0000 -0.4509 1.2790
										}
									}
								}
								JOINT Chin
								{
									OFFSET	-0.0038	-6.2776	9.0439
									CHANNELS 3 Zrotation Yrotation Xrotation
									End Site
									{
										OFFSET 0.0000 0.0000 0.0000
									}
								}
								JOINT LowerChin
								{
									OFFSET	-0.0038	-8.3551	5.8970
									CHANNELS 3 Zrotation Yrotation Xrotation
									End Site
									{
										OFFSET 0.0000 0.0000 0.0000
									}
								}
							}
							JOINT L_Temple
							{
								OFFSET	6.7164	11.9530	7.4033
								CHANNELS 3 Zrotation Yrotation Xrotation
								End Site
								{
									OFFSET 0.0000 0.0000 0.0000
								}
							}
							JOINT L_IOuterBrow
							{
								OFFSET	5.1850	11.3348	12.3701
								CHANNELS 3 Xrotation Yrotation Zrotation
								End Site
								{
									OFFSET 0.0000 0.0000 0.0000
								}
							}
							JOINT L_MidBrow
							{
								OFFSET	3.3668	11.4156	13.6166
								CHANNELS 3 Zrotation Yrotation Xrotation
								End Site
								{
									OFFSET 0.0000 0.0000 0.0000
								}
							}
							JOINT L_InnerBrow
							{
								OFFSET	1.6599	10.7576	14.1150
								CHANNELS 3 Zrotation Yrotation Xrotation
								End Site
								{
									OFFSET 0.0000 0.0000 0.0000
								}
							}
							JOINT L_Eye
							{
								OFFSET	3.0989	9.6989	11.4382
								CHANNELS 3 Zrotation Yrotation Xrotation
								End Site
								{
									OFFSET 0.0000 0.0000 0.0000
								}
							}
							JOINT L_EyelidLower
							{
								OFFSET	3.0989	9.6989	11.4382
								CHANNELS 3 Zrotation Yrotation Xrotation
								End Site
								{
									OFFSET 0.0000 0.0000 0.0000
								}
							}
							JOINT L_EyelidUpper
							{
								OFFSET	3.0989	9.6989	11.4382
								CHANNELS 3 Zrotation Yrotation Xrotation
								End Site
								{
									OFFSET 0.0000 0.0000 0.0000
								}
							}
							JOINT L_InnerCheek
							{
								OFFSET	2.1484	7.4937	13.4347
								CHANNELS 3 Zrotation Yrotation Xrotation
								End Site
								{
									OFFSET 0.0000 0.0000 0.0000
								}
							}
							JOINT L_LowerCheek
							{
								OFFSET	4.3527	2.5675	9.9423
								CHANNELS 3 Zrotation Yrotation Xrotation
								End Site
								{
									OFFSET 0.0000 0.0000 0.0000
								}
							}
							JOINT L_LipLower
							{
								OFFSET	1.2586	2.3762	13.5915
								CHANNELS 3 Zrotation Yrotation Xrotation
								End Site
								{
									OFFSET 0.0000 0.0000 0.0000
								}
							}
							JOINT L_LipUpper
							{
								OFFSET	1.2981	3.1535	13.8987
								CHANNELS 3 Zrotation Yrotation Xrotation
								End Site
								{
									OFFSET 0.0000 0.0000 0.0000
								}
							}
							JOINT LipMidLower
							{
								OFFSET	0.0000	2.4182	14.0113
								CHANNELS 3 Xrotation Yrotation Zrotation
								End Site
								{
									OFFSET 0.0000 0.0000 0.0000
								}
							}
							JOINT LipMidUpper
							{
								OFFSET	0.0000	3.2177	14.3127
								CHANNELS 3 Zrotation Yrotation Xrotation
								End Site
								{
									OFFSET 0.0000 0.0000 0.0000
								}
							}
							JOINT L_CheekFold
							{
								OFFSET	2.8997	4.8397	12.9905
								CHANNELS 3 Zrotation Yrotation Xrotation
								End Site
								{
									OFFSET 0.0000 0.0000 0.0000
								}
							}
							JOINT L_Nostril
							{
								OFFSET	1.2793	5.2449	14.0405
								CHANNELS 3 Zrotation Yrotation Xrotation
								End Site
								{
									OFFSET 0.0000 0.0000 0.0000
								}
							}
							JOINT Scalp
							{
								OFFSET	0.0038	15.5120	8.5871
								CHANNELS 3 Zrotation Yrotation Xrotation
								End Site
								{
									OFFSET 0.0000 0.0000 0.0000
								}
							}
							JOINT L_OuterCheek
							{
								OFFSET	4.8050	7.1686	11.6790
								CHANNELS 3 Zrotation Yrotation Xrotation
								End Site
								{
									OFFSET 0.0000 0.0000 0.0000
								}
							}
							JOINT R_LipLower
							{
								OFFSET	-1.2586	2.3762	13.5915
								CHANNELS 3 Zrotation Yrotation Xrotation
								End Site
								{
									OFFSET 0.0000 0.0000 0.0000
								}
							}
							JOINT RightNostril
							{
								OFFSET	-1.2793	5.2449	14.0405
								CHANNELS 3 Zrotation Yrotation Xrotation
								End Site
								{
									OFFSET 0.0000 0.0000 0.0000
								}
							}
							JOINT R_CheekFold
							{
								OFFSET	-2.8997	4.8397	12.9905
								CHANNELS 3 Zrotation Yrotation Xrotation
								End Site
								{
									OFFSET 0.0000 0.0000 0.0000
								}
							}
							JOINT R_LowerCheek
							{
								OFFSET	-4.3527	2.5675	9.9423
								CHANNELS 3 Zrotation Yrotation Xrotation
								End Site
								{
									OFFSET 0.0000 0.0000 0.0000
								}
							}
							JOINT R_LipUpper
							{
								OFFSET	-1.2981	3.1535	13.8987
								CHANNELS 3 Zrotation Yrotation Xrotation
								End Site
								{
									OFFSET 0.0000 0.0000 0.0000
								}
							}
							JOINT R_OuterCheek
							{
								OFFSET	-4.8050	7.1686	11.6790
								CHANNELS 3 Zrotation Yrotation Xrotation
								End Site
								{
									OFFSET 0.0000 0.0000 0.0000
								}
							}
							JOINT MidBrows
							{
								OFFSET	0.0000	10.8004	14.2738
								CHANNELS 3 Zrotation Yrotation Xrotation
								End Site
								{
									OFFSET 0.0000 0.0000 0.0000
								}
							}
							JOINT R_InnerBrow
							{
								OFFSET	-1.6599	10.7576	14.1150
								CHANNELS 3 Zrotation Yrotation Xrotation
								End Site
								{
									OFFSET 0.0000 0.0000 0.0000
								}
							}
							JOINT R_MidBrow
							{
								OFFSET	-3.3668	11.4156	13.6166
								CHANNELS 3 Zrotation Yrotation Xrotation
								End Site
								{
									OFFSET 0.0000 0.0000 0.0000
								}
							}
							JOINT R_IOuterBrow
							{
								OFFSET	-5.1850	11.3348	12.3701
								CHANNELS 3 Xrotation Yrotation Zrotation
								End Site
								{
									OFFSET 0.0000 0.0000 0.0000
								}
							}
							JOINT R_Eye
							{
								OFFSET	-3.0989	9.6989	11.4382
								CHANNELS 3 Zrotation Yrotation Xrotation
								End Site
								{
									OFFSET 0.0000 0.0000 0.0000
								}
							}
							JOINT R_EyelidLower
							{
								OFFSET	-3.0989	9.6989	11.4382
								CHANNELS 3 Zrotation Yrotation Xrotation
								End Site
								{
									OFFSET 0.0000 0.0000 0.0000
								}
							}
							JOINT R_EyelidUpper
							{
								OFFSET	-3.0989	9.6989	11.4382
								CHANNELS 3 Zrotation Yrotation Xrotation
								End Site
								{
									OFFSET 0.0000 0.0000 0.0000
								}
							}
							JOINT R_Temple
							{
								OFFSET	-6.7164	11.9530	7.4033
								CHANNELS 3 Zrotation Yrotation Xrotation
								End Site
								{
									OFFSET 0.0000 0.0000 0.0000
								}
							}
							JOINT R_Ear
							{
								OFFSET	-6.8586	8.8620	3.3161
								CHANNELS 3 Zrotation Yrotation Xrotation
								End Site
								{
									OFFSET 0.0000 0.0000 0.0000
								}
							}
							JOINT R_InnerCheek
							{
								OFFSET	-2.1484	7.4937	13.4347
								CHANNELS 3 Zrotation Yrotation Xrotation
								End Site
								{
									OFFSET 0.0000 0.0000 0.0000
								}
							}
							JOINT L_LipCorner
							{
								OFFSET	2.9076	2.9095	12.5938
								CHANNELS 3 Zrotation Yrotation Xrotation
								JOINT L_LipCornerLowTweak
								{
									OFFSET	-0.8072	-0.3254	0.4546
									CHANNELS 3 Zrotation Yrotation Xrotation
									End Site
									{
										OFFSET 0.0000 0.0000 0.0000
									}
								}
								JOINT L_LipCornerUpTweak
								{
									OFFSET	-0.7251	0.0237	0.5782
									CHANNELS 3 Zrotation Yrotation Xrotation
									End Site
									{
										OFFSET 0.0000 0.0000 0.0000
									}
								}
							}
							JOINT R_gLipCorner
							{
								OFFSET	-2.9076	2.9095	12.5938
								CHANNELS 3 Zrotation Yrotation Xrotation
								JOINT R_gLipCornerUpTweak
								{
									OFFSET	0.7251	0.0237	0.5782
									CHANNELS 3 Zrotation Yrotation Xrotation
									End Site
									{
										OFFSET 0.0000 0.0000 0.0000
									}
								}
								JOINT R_gLipCornerLowTweak
								{
									OFFSET	0.8072	-0.3254	0.4546
									CHANNELS 3 Zrotation Yrotation Xrotation
									End Site
									{
										OFFSET 0.0000 0.0000 0.0000
									}
								}
							}
						}
						JOINT Throat
						{
							OFFSET	0.0000	-0.6141	8.3185
							CHANNELS 3 Zrotation Yrotation Xrotation
							End Site
							{
								OFFSET 0.0000 0.0000 0.0000
							}
						}
					}
				}
				JOINT LeftShoulder
				{
					OFFSET	6.1442	10.1870	-3.7932
					CHANNELS 3 Zrotation Xrotation Yrotation
					JOINT LeftArm
					{
						OFFSET	12.3191	-1.1130	-1.7935
						CHANNELS 3 Zrotation Xrotation Yrotation
						JOINT LeftForeArm
						{
							OFFSET	27.6870	0.0000	0.0000
							CHANNELS 3 Yrotation Zrotation Xrotation
							JOINT LeftHand
							{
								OFFSET	27.8738	0.0000	0.0000
								CHANNELS 3 Zrotation Yrotation Xrotation
								JOINT LeftHandThumb1
								{
									OFFSET	2.3785	-1.0029	2.6209
									CHANNELS 3 Zrotation Xrotation Yrotation
									JOINT LeftHandThumb2
									{
										OFFSET	3.3624	-1.0029	2.8398
										CHANNELS 3 Zrotation Xrotation Yrotation
										JOINT LeftHandThumb3
										{
											OFFSET	4.5018	-1.3445	2.1783
											CHANNELS 3 Zrotation Xrotation Yrotation
											End Site
											{
												OFFSET 2.6000 -1.0000 1.0000
											}
										}
									}
								}
								JOINT LeftHandMiddle1
								{
									OFFSET	10.4639	0.6148	0.4298
									CHANNELS 3 Zrotation Yrotation Xrotation
									JOINT LeftHandMiddle2
									{
										OFFSET	5.7921	0.0000	0.0000
										CHANNELS 3 Zrotation Yrotation Xrotation
										JOINT LeftHandMiddle3
										{
											OFFSET	3.7132	0.0000	0.0000
											CHANNELS 3 Zrotation Yrotation Xrotation
											End Site
											{
												OFFSET 2.3000 0.0000 0.0000
											}
										}
									}
								}
								JOINT LeftHandIndex1
								{
									OFFSET	10.3945	0.6148	2.7055
									CHANNELS 3 Zrotation Yrotation Xrotation
									JOINT LeftHandIndex2
									{
										OFFSET	5.5493	0.0000	0.0000
										CHANNELS 3 Zrotation Yrotation Xrotation
										JOINT LeftHandIndex3
										{
											OFFSET	3.3911	0.0000	0.0000
											CHANNELS 3 Zrotation Yrotation Xrotation
											End Site
											{
												OFFSET 2.5000 0.0000 0.0000
											}
										}
									}
								}
								JOINT LeftHandRing1
								{
									OFFSET	10.3252	0.3211	-1.8755
									CHANNELS 3 Zrotation Yrotation Xrotation
									JOINT LeftHandRing2
									{
										OFFSET	5.4452	0.0000	0.0000
										CHANNELS 3 Zrotation Yrotation Xrotation
										JOINT LeftHandRing3
										{
											OFFSET	3.7132	0.0000	0.0000
											CHANNELS 3 Zrotation Yrotation Xrotation
											End Site
											{
												OFFSET 2.0000 0.0000 0.0000
											}
										}
									}
								}
								JOINT LeftHandPinky1
								{
									OFFSET	10.0130	-0.0783	-3.9671
									CHANNELS 3 Zrotation Yrotation Xrotation
									JOINT LeftHandPinky2
									{
										OFFSET	3.6763	0.0000	0.0000
										CHANNELS 3 Zrotation Yrotation Xrotation
										JOINT LeftHandPinky3
										{
											OFFSET	2.8113	0.0000	0.0000
											CHANNELS 3 Zrotation Yrotation Xrotation
											End Site
											{
												OFFSET 2.9000 0.0000 0.0000
											}
										}
									}
								}
							}
						}
					}
				}
				JOINT RightShoulder
				{
					OFFSET	-6.1402	10.1870	-3.7932
					CHANNELS 3 Zrotation Xrotation Yrotation
					JOINT RightArm
					{
						OFFSET	-12.3231	-1.1130	-1.7935
						CHANNELS 3 Zrotation Xrotation Yrotation
						JOINT RightForeArm
						{
							OFFSET	-27.6870	0.0000	0.0000
							CHANNELS 3 Yrotation Zrotation Xrotation
							JOINT RightHand
							{
								OFFSET	-27.8738	0.0000	0.0000
								CHANNELS 3 Zrotation Yrotation Xrotation
								JOINT RightHandThumb1
								{
									OFFSET	-2.5178	-0.9367	2.5137
									CHANNELS 3 Yrotation Xrotation Zrotation
									JOINT RightHandThumb2
									{
										OFFSET	-3.2638	-1.0870	2.9669
										CHANNELS 3 Zrotation Xrotation Yrotation
										JOINT RightHandThumb3
										{
											OFFSET	-4.4165	-1.3703	2.1350
											CHANNELS 3 Zrotation Xrotation Yrotation
											End Site
											{
												OFFSET -2.6000 -1.0000 1.0000
											}
										}
									}
								}
								JOINT RightHandIndex1
								{
									OFFSET	-10.4665	0.4896	2.7120
									CHANNELS 3 Zrotation Yrotation Xrotation
									JOINT RightHandIndex2
									{
										OFFSET	-5.3768	0.0000	0.0000
										CHANNELS 3 Zrotation Yrotation Xrotation
										JOINT RightHandIndex3
										{
											OFFSET	-3.3855	0.0000	0.0000
											CHANNELS 3 Zrotation Yrotation Xrotation
											End Site
											{
												OFFSET -2.6000 0.0000 0.0000
											}
										}
									}
								}
								JOINT RightHandMiddle1
								{
									OFFSET	-10.7596	0.4896	0.4278
									CHANNELS 3 Zrotation Yrotation Xrotation
									JOINT RightHandMiddle2
									{
										OFFSET	-5.6168	0.0000	0.0000
										CHANNELS 3 Zrotation Yrotation Xrotation
										JOINT RightHandMiddle3
										{
											OFFSET	-3.7364	0.0000	0.0000
											CHANNELS 3 Zrotation Yrotation Xrotation
											End Site
											{
												OFFSET -2.3000 0.0000 0.0000
											}
										}
									}
								}
								JOINT RightHandRing1
								{
									OFFSET	-10.4702	0.3879	-1.9363
									CHANNELS 3 Zrotation Yrotation Xrotation
									JOINT RightHandRing2
									{
										OFFSET	-5.4013	0.0000	0.0000
										CHANNELS 3 Zrotation Yrotation Xrotation
										JOINT RightHandRing3
										{
											OFFSET	-3.3916	0.0000	0.0000
											CHANNELS 3 Zrotation Yrotation Xrotation
											End Site
											{
												OFFSET -2.2000 0.0000 0.0000
											}
										}
									}
								}
								JOINT RightHandPinky1
								{
									OFFSET	-9.9715	-0.1191	-3.9540
									CHANNELS 3 Zrotation Yrotation Xrotation
									JOINT RightHandPinky2
									{
										OFFSET	-3.6528	0.0000	0.0000
										CHANNELS 3 Zrotation Yrotation Xrotation
										JOINT RightHandPinky3
										{
											OFFSET	-2.7820	0.0000	0.0000
											CHANNELS 3 Zrotation Yrotation Xrotation
											End Site
											{
												OFFSET -2.9000 0.0000 0.0000
											}
										}
									}
								}
							}
						}
					}
				}
			}
		}
	}
	JOINT LeftUpLeg
	{
		OFFSET	9.6338	-3.2733	0.0000
		CHANNELS 3 Xrotation Yrotation Zrotation
		JOINT LeftLeg
		{
			OFFSET	0.0000	-41.7300	-1.7300
			CHANNELS 3 Xrotation Yrotation Zrotation
			JOINT LeftFoot
			{
				OFFSET	0.0126	-39.1900	-0.8477
				CHANNELS 3 Xrotation Yrotation Zrotation
				JOINT LeftToeBase
				{
					OFFSET	-0.1833	-12.1931	8.2823
					CHANNELS 3 Xrotation Yrotation Zrotation
					End Site
					{
						OFFSET 0.0000 0.0000 12.7000
					}
				}
			}
		}
	}
	JOINT RightUpLeg
	{
		OFFSET	-9.6338	-3.2733	0.0000
		CHANNELS 3 Xrotation Yrotation Zrotation
		JOINT RightLeg
		{
			OFFSET	0.0000	-41.7300	-1.7300
			CHANNELS 3 Xrotation Yrotation Zrotation
			JOINT RightFoot
			{
				OFFSET	0.0126	-39.1900	-0.8477
				CHANNELS 3 Xrotation Yrotation Zrotation
				JOINT RightToeBase
				{
					OFFSET	-0.1833	-12.1931	8.2823
					CHANNELS 3 Xrotation Yrotation Zrotation
					End Site
					{
						OFFSET 0.0032 0.0000 12.7000
					}
				}
			}
		}
	}
}
MOTION
Frames: 3
Frame Time: 0.0166667
0.0011 78.1710 -0.0687 -5.0198 -4.0455 -2.2631 7.4912 1.4324 6.2962 -4.0049 -0.0595 2.9884 -4.0197 -0.5425 -0.0158 8.9271 -0.2057 -1.2494 -0.0000 0.0000 -0.0000 6.7841 -0.4507 -4.4732 0.0000 -0.0000 0.0000 0.0000 -0.0000 0.0000 0.0000 0.0000 -0.7385 0.0000 -0.0000 0.0000 0.0000 -0.0000 0.0000 0.0000 -0.0000 0.0000 0.0000 -0.0000 0.0000 0.0000 -0.0000 0.0000 -0.0000 0.0000 -0.0000 0.0000 -0.0000 0.0000 0.0000 -0.0000 0.0000 0.0000 -0.0000 0.0000 0.0000 -0.0000 0.0000 0.0000 -0.0000 0.0000 0.0000 -0.0000 0.0000 0.0000 -0.0000 0.0000 0.0000 -0.0000 0.0000 0.0000 -0.0000 0.0000 -0.0000 0.0000 -0.0000 0.0000 -0.0000 0.0000 0.0000 -0.0000 0.0000 0.0000 -0.0000 0.0000 0.0000 -0.0000 0.0000 0.0000 -0.0000 0.0000 0.0000 -0.0000 0.0000 0.0000 -0.0000 0.0000 0.0000 -0.0000 0.0000 0.0000 -0.0000 0.0000 0.0000 -0.0000 0.0000 0.0000 -0.0000 0.0000 0.0000 -0.0000 0.0000 0.0000 -0.0000 0.0000 0.0000 -0.0000 0.0000 -0.0000 0.0000 -0.0000 0.0000 -0.0000 0.0000 0.0000 -0.0000 0.0000 0.0000 -0.0000 0.0000 0.0000 -0.0000 0.0000 0.0000 -0.0000 0.0000 0.0000 -0.0000 0.0000 0.0000 -0.0000 0.0000 0.0000 -0.0000 0.0000 0.0000 -0.0000 0.0000 0.0000 -0.0000 0.0000 0.0000 -0.0000 0.0000 0.0000 -0.0000 0.0000 0.0000 -0.0000 0.0000 19.7406 12.1591 -10.3118 24.0665 -61.0111 3.6359 -18.8711 3.4043 -24.1653 8.3857 0.1061 -66.6475 6.5251 10.1531 5.9458 6.3239 8.0195 16.4455 22.3827 4.8191 12.9019 -7.0461 0.1417 1.0576 -9.0072 -0.0147 -1.1348 -11.5010 0.0490 0.1749 -6.4703 3.6804 -0.6620 -12.7482 0.1962 1.8651 -11.5520 0.0767 0.8470 -6.7544 0.4480 -1.8385 -19.8587 -1.0328 -4.8689 -13.1645 -0.2820 -2.9388 -7.3786 0.3876 -7.0114 -13.2024 -0.6108 0.2165 -17.2853 0.3218 -4.9983 -22.8336 11.7498 10.1908 -19.6036 -57.5720 3.1500 11.7929 -13.2240 -15.7600 -2.5814 0.4420 -71.1567 -7.1407 9.3313 -7.6036 -6.3227 8.0104 -16.4638 -21.9328 7.7734 -18.5685 6.5206 -3.6773 -0.6613 12.8237 -0.2010 1.8642 11.5718 -0.0789 0.8483 7.0955 -0.1464 1.0535 9.0971 0.0224 -1.1400 11.5484 -0.0512 0.1760 6.8132 -0.4553 -1.8432 19.9484 1.0448 -4.8668 13.1972 0.2854 -2.9472 7.4467 -0.3978 -7.0163 13.3004 0.6122 0.2219 17.3089 -0.3204 -5.0115 -40.8177 26.2247 32.5774 81.1548 -9.7041 10.2772 -44.7789 -19.5356 -2.6266 1.2517 0.0096 -1.2726 -43.4012 -26.7714 -21.7733 75.8719 -4.3472 -9.8338 -32.7904 2.4153 9.9238 0.5577 0.0000 0.0000 
0.0888 77.5063 -0.1511 -5.3726 -4.0666 -2.3307 8.1102 1.5040 6.2504 -3.9665 -0.0415 3.0064 -3.9811 -0.5258 0.0029 8.8354 -0.2197 -1.2509 -0.0000 0.0000 -0.0000 6.4489 -0.7082 -4.4121 0.0000 -0.0000 0.0000 0.0000 -0.0000 0.0000 0.0000 0.0000 -0.7385 0.0000 -0.0000 0.0000 0.0000 -0.0000 0.0000 0.0000 -0.0000 0.0000 0.0000 -0.0000 0.0000 0.0000 -0.0000 0.0000 -0.0000 0.0000 -0.0000 0.0000 -0.0000 0.0000 0.0000 -0.0000 0.0000 0.0000 -0.0000 0.0000 0.0000 -0.0000 0.0000 0.0000 -0.0000 0.0000 0.0000 -0.0000 0.0000 0.0000 -0.0000 0.0000 0.0000 -0.0000 0.0000 0.0000 -0.0000 0.0000 -0.0000 0.0000 -0.0000 0.0000 -0.0000 0.0000 0.0000 -0.0000 0.0000 0.0000 -0.0000 0.0000 0.0000 -0.0000 0.0000 0.0000 -0.0000 0.0000 0.0000 -0.0000 0.0000 0.0000 -0.0000 0.0000 0.0000 -0.0000 0.0000 0.0000 -0.0000 0.0000 0.0000 -0.0000 0.0000 0.0000 -0.0000 0.0000 0.0000 -0.0000 0.0000 0.0000 -0.0000 0.0000 0.0000 -0.0000 0.0000 -0.0000 0.0000 -0.0000 0.0000 -0.0000 0.0000 0.0000 -0.0000 0.0000 0.0000 -0.0000 0.0000 0.0000 -0.0000 0.0000 0.0000 -0.0000 0.0000 0.0000 -0.0000 0.0000 0.0000 -0.0000 0.0000 0.0000 -0.0000 0.0000 0.0000 -0.0000 0.0000 0.0000 -0.0000 0.0000 0.0000 -0.0000 0.0000 0.0000 -0.0000 0.0000 0.0000 -0.0000 0.0000 20.2143 12.0539 -10.3567 23.4774 -60.2640 2.5685 -17.7489 3.3120 -24.1745 9.1260 0.4555 -67.3998 6.4982 10.1299 5.9411 6.3207 8.0122 16.4626 22.3796 4.8073 12.9101 -7.0924 0.1444 1.0539 -9.0905 -0.0231 -1.1398 -11.5464 0.0497 0.1761 -6.5183 3.6766 -0.6613 -12.8183 0.1993 1.8646 -11.5712 0.0774 0.8485 -6.8093 0.4527 -1.8429 -19.9429 -1.0466 -4.8671 -13.1961 -0.2868 -2.9469 -7.4420 0.3944 -7.0164 -13.2936 -0.6137 0.2218 -17.3088 0.3185 -5.0111 -22.0274 11.9158 10.0398 -19.3970 -56.8722 4.1655 11.2821 -13.0150 -15.4821 -2.5946 0.6461 -71.9896 -7.1567 9.3581 -7.6412 -6.3258 8.0193 -16.4424 -21.9371 7.7881 -18.5575 6.4590 -3.6814 -0.6621 12.7351 -0.1970 1.8644 11.5459 -0.0780 0.8462 7.0366 -0.1437 1.0579 8.9920 0.0115 -1.1332 11.4885 -0.0502 0.1744 6.7442 -0.4506 -1.8373 19.8399 1.0266 -4.8681 13.1549 0.2790 -2.9360 7.3667 -0.3917 -7.0087 13.1841 0.6082 0.2150 17.2763 -0.3246 -4.9938 -40.9335 25.7490 32.5443 82.5827 -9.7033 10.2786 -45.4427 -19.0286 -2.3123 1.1625 0.0134 -1.5005 -43.9297 -26.4082 -22.1804 77.3516 -4.4218 -9.8236 -33.4339 2.5126 9.9736 0.5666 -0.0000 -0.0000 
0.1599 77.1534 -0.2359 -5.7094 -3.9387 -2.3996 8.5040 1.5857 6.0806 -3.9350 -0.0121 3.0103 -3.9497 -0.4965 0.0074 8.7713 -0.2282 -1.2431 -0.0000 0.0000 -0.0000 6.3528 -0.9080 -4.3451 0.0000 -0.0000 0.0000 0.0000 -0.0000 0.0000 0.0000 0.0000 -0.7385 0.0000 -0.0000 0.0000 0.0000 -0.0000 0.0000 0.0000 -0.0000 0.0000 0.0000 -0.0000 0.0000 0.0000 -0.0000 0.0000 -0.0000 0.0000 -0.0000 0.0000 -0.0000 0.0000 0.0000 -0.0000 0.0000 0.0000 -0.0000 0.0000 0.0000 -0.0000 0.0000 0.0000 -0.0000 0.0000 0.0000 -0.0000 0.0000 0.0000 -0.0000 0.0000 0.0000 -0.0000 0.0000 0.0000 -0.0000 0.0000 -0.0000 0.0000 -0.0000 0.0000 -0.0000 0.0000 0.0000 -0.0000 0.0000 0.0000 -0.0000 0.0000 0.0000 -0.0000 0.0000 0.0000 -0.0000 0.0000 0.0000 -0.0000 0.0000 0.0000 -0.0000 0.0000 0.0000 -0.0000 0.0000 0.0000 -0.0000 0.0000 0.0000 -0.0000 0.0000 0.0000 -0.0000 0.0000 0.0000 -0.0000 0.0000 0.0000 -0.0000 0.0000 0.0000 -0.0000 0.0000 -0.0000 0.0000 -0.0000 0.0000 -0.0000 0.0000 0.0000 -0.0000 0.0000 0.0000 -0.0000 0.0000 0.0000 -0.0000 0.0000 0.0000 -0.0000 0.0000 0.0000 -0.0000 0.0000 0.0000 -0.0000 0.0000 0.0000 -0.0000 0.0000 0.0000 -0.0000 0.0000 0.0000 -0.0000 0.0000 0.0000 -0.0000 0.0000 0.0000 -0.0000 0.0000 0.0000 -0.0000 0.0000 20.3936 11.8555 -10.2940 22.5803 -59.3229 0.9475 -16.2922 3.1440 -24.1458 9.8340 0.8624 -67.9697 6.4973 10.1310 5.9415 6.3203 8.0121 16.4628 22.3795 4.8070 12.9099 -7.0927 0.1447 1.0538 -9.0913 -0.0230 -1.1396 -11.5456 0.0497 0.1760 -6.5182 3.6763 -0.6613 -12.8189 0.1992 1.8645 -11.5707 0.0774 0.8484 -6.8099 0.4534 -1.8428 -19.9427 -1.0464 -4.8666 -13.1953 -0.2867 -2.9466 -7.4427 0.3957 -7.0159 -13.2940 -0.6136 0.2217 -17.3076 0.3185 -5.0105 -21.0200 11.8507 9.8641 -18.4378 -56.3814 5.9911 10.5376 -12.9055 -15.7046 -2.5676 0.5799 -72.6436 -7.1669 9.3748 -7.6657 -6.3280 8.0251 -16.4285 -21.9399 7.7976 -18.5506 6.4195 -3.6842 -0.6626 12.6779 -0.1945 1.8647 11.5296 -0.0774 0.8449 6.9987 -0.1418 1.0608 8.9241 0.0045 -1.1289 11.4504 -0.0496 0.1734 6.6995 -0.4473 -1.8335 19.7702 1.0150 -4.8692 13.1281 0.2750 -2.9290 7.3150 -0.3871 -7.0041 13.1092 0.6058 0.2106 17.2559 -0.3274 -4.9827 -40.6811 25.5672 32.2842 83.2662 -9.7033 10.2793 -45.9445 -18.8795 -2.1868 1.1959 0.0091 -1.2392 -44.2135 -26.1278 -22.5663 78.1545 -4.6126 -9.8130 -33.7373 2.5884 10.0490 0.5915 -0.0000 0.0000 
